<svg width="1200" height="630" viewBox="0 0 1200 630" fill="none" xmlns="http://www.w3.org/2000/svg" role="img" aria-labelledby="title desc">
  <title id="title">Awdah - عودة</title>
  <desc id="desc">Open Graph preview image for the Awdah qadaa tracker.</desc>
  <rect width="1200" height="630" fill="#111827" />
  <path d="M0 0H1200V630H0V0Z" fill="url(#paint0_linear_1_2)" />
  <circle cx="975" cy="108" r="128" fill="#D4A24C" fill-opacity="0.18" />
  <circle cx="238" cy="486" r="176" fill="#9ED3C6" fill-opacity="0.12" />
  <circle cx="1045" cy="471" r="86" fill="#FFFFFF" fill-opacity="0.08" />
  <rect x="84" y="82" width="164" height="164" rx="40" fill="#0F172A" fill-opacity="0.72" stroke="#D4A24C" stroke-opacity="0.65" />
  <path d="M166 118L188 160L230 182L188 204L166 246L144 204L102 182L144 160L166 118Z" fill="#D4A24C" />
  <path d="M158 145L186 182L158 219L130 182L158 145Z" fill="#F5E6BD" fill-opacity="0.88" />
  <text x="300" y="176" fill="#F8FAFC" font-family="Arial, Helvetica, sans-serif" font-size="82" font-weight="700" letter-spacing="-1.5">Awdah</text>
  <text x="302" y="244" fill="#D4A24C" font-family="Arial, Helvetica, sans-serif" font-size="36" font-weight="600">عودة</text>
  <text x="84" y="368" fill="#F8FAFC" font-family="Arial, Helvetica, sans-serif" font-size="40" font-weight="600">Track your missed prayers and fasts with clarity.</text>
  <text x="84" y="422" fill="#CBD5E1" font-family="Arial, Helvetica, sans-serif" font-size="28" font-weight="400">Hijri-first. Bilingual. Privacy-aware.</text>
  <rect x="84" y="478" width="520" height="74" rx="22" fill="#0F172A" fill-opacity="0.56" stroke="#D4A24C" stroke-opacity="0.45" />
  <text x="118" y="525" fill="#F8FAFC" font-family="Arial, Helvetica, sans-serif" font-size="28" font-weight="600">A focused qadaa tracker for daily progress.</text>
  <defs>
    <linearGradient id="paint0_linear_1_2" x1="120" y1="30" x2="1080" y2="600" gradientUnits="userSpaceOnUse">
      <stop stop-color="#0F172A" />
      <stop offset="0.54" stop-color="#152238" />
      <stop offset="1" stop-color="#1F2937" />
    </linearGradient>
  </defs>
</svg>
